<?xml version="1.0" encoding="UTF-8"?>
<svg id="Layer_6" data-name="Layer 6" xmlns="http://www.w3.org/2000/svg" xmlns:xlink="http://www.w3.org/1999/xlink" viewBox="0 0 1984 1984">
  <defs>
    <style>
      .cls-1 {
        fill: url(#linear-gradient);
      }
    </style>
    <linearGradient id="linear-gradient" x1="1386.45" y1="-287.95" x2="2703.54" y2="-1192.06" gradientTransform="translate(-955.36 1203.63) rotate(17.24)" gradientUnits="userSpaceOnUse">
      <stop offset=".09" stop-color="#0ea5e9"/>
      <stop offset=".12" stop-color="#0ea2e9"/>
      <stop offset=".68" stop-color="#1e74ea"/>
      <stop offset=".96" stop-color="#2563eb"/>
    </linearGradient>
  </defs>
  <path class="cls-1" d="m1440,654.71l-500.56,294.14-230.02-391.43,500.56-294.14,230.02,391.43Zm200.88-102.43l-240.5-409.27c-12.14-20.66-38.73-27.57-59.39-15.43l-95.77,56.28,286.04,486.77,93.09-54.7c22.14-13.01,29.54-41.5,16.53-63.64Zm-1130.59,113.27l240.5,409.27c12.14,20.66,38.73,27.57,59.39,15.43l95.77-56.28-286.04-486.77-93.09,54.7c-22.14,13.01-29.54,41.5-16.53,63.64Zm1347.24,1119.43l-561.88-956.18-135.15,79.42,562.37,957.01c6.47,11.01,20.63,14.69,31.64,8.22l94.47-55.51c11.46-6.73,15.29-21.48,8.56-32.94Zm-1168.64-338.71l-282.71-87.71-104.98,124.77,343.16,106.46,44.53-143.53Zm-44.53,143.53l343.16,106.46-15.92-162.28-282.71-87.71-44.53,143.53Z"/>
</svg>