<?xml version="1.0" encoding="UTF-8"?>
<svg id="Layer_7" data-name="Layer 7" xmlns="http://www.w3.org/2000/svg" xmlns:xlink="http://www.w3.org/1999/xlink" viewBox="0 0 1991.11 1991.11">
  <defs>
    <style>
      .cls-1 {
        fill: url(#linear-gradient);
      }
    </style>
    <linearGradient id="linear-gradient" x1="347.25" y1="808.91" x2="1779.9" y2="1059.22" gradientUnits="userSpaceOnUse">
      <stop offset=".07" stop-color="#22d167"/>
      <stop offset=".3" stop-color="#279778"/>
      <stop offset=".62" stop-color="#2e4d8f"/>
      <stop offset=".85" stop-color="#331f9e"/>
      <stop offset=".96" stop-color="#350ea4"/>
    </linearGradient>
  </defs>
  <g id="Layer_5" data-name="Layer 5">
    <path class="cls-1" d="m1733.1,1039.56l-40.89,13.96-157.75-462.17s-14.28-71.77-82.78-81.6c-56.6-8.12-126.63-11.71-126.63-11.71l208.12,609.76-81,27.65-292.52-857.03c-17.77-52.08-74.4-79.88-126.48-62.11l-521.9,178.13c-52.08,17.77-79.88,74.4-62.11,126.48l292.52,857.03-79.09,26.99-208.92-612.09s-53.22,45.65-93.04,86.68c-48.2,49.66-15.61,115.18-15.61,115.18l158.54,464.51-42.67,14.56c-21.93,7.49-33.64,31.33-26.16,53.26h0c7.49,21.93,31.33,33.64,53.26,26.16l1272.19-434.22c21.93-7.49,33.64-31.33,26.16-53.26h0c-7.49-21.93-31.33-33.64-53.26-26.16Zm-1077.42-471.26c-7.49-21.93,4.23-45.78,26.16-53.26l290.13-99.02c21.93-7.49,45.78,4.23,53.26,26.16h0c7.49,21.93-4.23,45.78-26.16,53.26l-290.13,99.02c-21.93,7.49-45.78-4.23-53.26-26.16h0Zm53.2,158.2c-7.49-21.93,4.23-45.78,26.16-53.26l290.13-99.02c21.93-7.49,45.78,4.23,53.26,26.16h0c7.49,21.93-4.22,45.78-26.16,53.26l-290.13,99.02c-21.93,7.49-45.78-4.23-53.26-26.16h0Zm53.91,157.96c-7.49-21.93,4.23-45.78,26.16-53.26l290.13-99.02c21.93-7.49,45.78,4.23,53.26,26.16h0c7.49,21.93-4.22,45.78-26.16,53.26l-290.13,99.02c-21.93,7.49-45.78-4.23-53.26-26.16h0Zm365.53,250.39l-.14.05c-13.57-32.91-51.02-49.86-85.7-38.03-34.68,11.84-53.94,48.15-44.56,82.49l-.14.05,33.97,99.54-79.3,27.07-36.61-107.25.29-.1c-20.85-76.34,21.99-157.07,99.09-183.39,77.11-26.32,160.36,11.37,190.54,84.53l.29-.1,36.61,107.25-80.37,27.43-33.97-99.54Z"/>
  </g>
</svg>