<?xml version="1.0" encoding="UTF-8"?>
<svg id="Layer_3" data-name="Layer 3" xmlns="http://www.w3.org/2000/svg" xmlns:xlink="http://www.w3.org/1999/xlink" viewBox="0 0 1984 1984">
  <defs>
    <style>
      .cls-1 {
        fill: url(#linear-gradient);
      }
    </style>
    <linearGradient id="linear-gradient" x1="652.97" y1="-177.46" x2="2281.16" y2="644.45" gradientTransform="translate(-360.09 638.56) rotate(8.49)" gradientUnits="userSpaceOnUse">
      <stop offset=".19" stop-color="#fb5462"/>
      <stop offset=".34" stop-color="#dc517d"/>
      <stop offset=".62" stop-color="#aa4caa"/>
      <stop offset=".82" stop-color="#8b49c6"/>
      <stop offset=".94" stop-color="#8048d1"/>
    </linearGradient>
  </defs>
  <g id="Layer_8" data-name="Layer 8">
    <path class="cls-1" d="m1598.26,631.67l-244.44-36.49,14.63-98.02c8.08-54.14-30.29-104.73-85.71-113l-293.43-43.8c-55.42-8.27-106.89,28.91-114.97,83.04l-14.63,98.02-244.44-36.49c-117.07-17.48-226.26,64.04-243.88,182.07l-21.16,141.78c2.31,20.18,12.65,72.46,58.26,91.08,57.02,23.29,461.09,187.89,461.09,187.89l9.77-65.46s22.45-80.95,105.22-73.81l61.29,9.15,1.26.19,61.33,9.16c81.29,17.35,79.13,101.33,79.13,101.33l-9.77,65.46s434.79-39.38,496.16-44.99c52.13-4.77,77.28-57.44,83.67-73.2l20.68-138.54c17.62-118.03-63-227.89-180.07-245.36Zm-657.6-98.17l14.76-98.9c1.08-7.25,7.98-12.23,15.4-11.12l305.55,45.61c7.42,1.11,12.56,7.88,11.48,15.13l-14.76,98.9-332.43-49.63Zm797.26,614.22l-52.71,353.09c-14.63,98.02-105.55,165.68-203.06,151.13l-1052.55-157.13c-98.21-14.66-165.88-106.58-151.14-205.3l52.36-350.77c10.33,17.37,49.59,33.37,49.59,33.37l481.52,195.79c11.22,75.33,70.4,84.16,70.4,84.16l68.06,10.16,1.26.19,68.1,10.17s59.21,8.84,91.96-59.92l518.02-46.58s44.18-4,58.19-18.35Zm-795.86,8.31l16.78-112.41c1.45-9.74,10.52-16.45,20.26-15l112.41,16.78c9.74,1.45,16.45,10.52,15,20.26l-16.78,112.41c-1.45,9.74-10.52,16.45-20.26,15l-112.41-16.78c-9.74-1.45-16.45-10.52-15-20.26Z"/>
  </g>
</svg>