<?xml version="1.0" encoding="UTF-8"?>
<svg id="Layer_2" data-name="Layer 2" xmlns="http://www.w3.org/2000/svg" xmlns:xlink="http://www.w3.org/1999/xlink" viewBox="0 0 1991.11 1991.11">
  <defs>
    <style>
      .cls-1 {
        fill: url(#linear-gradient-2);
      }

      .cls-2 {
        fill: url(#linear-gradient);
      }
    </style>
    <linearGradient id="linear-gradient" x1="-11.52" y1="563.27" x2="1564.01" y2="48.31" gradientTransform="translate(467.19 531.29) rotate(18.46)" gradientUnits="userSpaceOnUse">
      <stop offset=".22" stop-color="#4cc8a0"/>
      <stop offset=".83" stop-color="#511cd1"/>
    </linearGradient>
    <linearGradient id="linear-gradient-2" x1="-392.68" y1="149.32" x2="1237.71" y2="489.54" gradientTransform="translate(467.19 531.29) rotate(18.46)" gradientUnits="userSpaceOnUse">
      <stop offset=".16" stop-color="#2563eb"/>
      <stop offset=".86" stop-color="#0ea5e9"/>
    </linearGradient>
  </defs>
  <path class="cls-2" d="m307.93,766.82s312.28-257.28,393.35-208.2c81.07,49.08,382.32,144.96,382.32,144.96l276.91,648.95s7.98,70.26-30.22,90.52c-38.2,20.26-97.13-10.42-97.13-10.42,0,0-5.7,78.27-56.15,83.43-50.45,5.16-96.17-32.11-96.17-32.11-5.67,31.12,4.68,61.3-52.85,78.24-57.53,16.94-110.78-49.57-110.78-49.57-41.08,113.61-118.37,43.79-118.37,43.79l-380.71-516.98s-24.98-19.35-36.72-101.87c-11.74-82.52-65.94-146.2-65.94-146.2l-7.53-24.52Zm1078.35-4.15l258.22,560.98c1.62,3.51,5.77,5.05,9.29,3.43l251.76-115.88c3.51-1.62,5.05-5.77,3.43-9.29l-258.22-560.98c-1.62-3.51-5.77-5.05-9.29-3.43l-251.76,115.88c-3.51,1.62-5.05,5.77-3.43,9.29Z"/>
  <path class="cls-1" d="m1618.02,1245.15l-253.26,108.79c-137.6-152.84-263.85-372.64-263.85-372.64-239.97-62.84-284.31-24.2-284.31-24.2,0,0-10.39,31.11-67,78.24-56.61,47.12-121.66,15.97-161.73-.56-40.07-16.52-10.35-53.76-10.35-53.76,0,0,108.04-111.69,134.93-154.59,26.9-42.89,61.32-47.12,61.32-47.12l321.14-71.97,323.87,108.15,199.23,429.65Zm-1139.52-58.56l62.82-35.65c6.26-3.55,8.46-11.51,4.9-17.77l-61.43-108.24c-3.55-6.26-11.51-8.46-17.77-4.9l-62.82,35.65c-6.26,3.55-8.46,11.51-4.9,17.77l61.43,108.24c3.55,6.26,11.51,8.46,17.77,4.9Zm80.18,128.58l62.39-35.41c6.26-3.55,8.46-11.51,4.9-17.77l-62.53-110.17c-3.55-6.26-11.51-8.46-17.77-4.9l-62.39,35.41c-6.26,3.55-8.46,11.51-4.9,17.77l62.53,110.17c3.55,6.26,11.51,8.46,17.77,4.9Zm81.47,120.75l60.09-39.19c6.03-3.93,7.73-12.01,3.8-18.04l-66.47-101.91c-3.93-6.03-12.01-7.73-18.04-3.8l-60.09,39.19c-6.03,3.93-7.73,12.01-3.8,18.04l66.47,101.91c3.93,6.03,12.01,7.73,18.04,3.8Zm85.49,105.87l58.45-42.43c5.83-4.23,7.12-12.38,2.89-18.21l-65.5-90.23c-4.23-5.83-12.38-7.12-18.21-2.89l-58.45,42.43c-5.83,4.23-7.12,12.38-2.89,18.21l65.5,90.23c4.23,5.83,12.38,7.12,18.21,2.89Zm29.18-1018.86l-131.77-244.19c-1.79-3.32-5.94-4.56-9.26-2.77L92.19,557.44c-3.32,1.79-4.56,5.94-2.77,9.26l131.77,244.19c1.79,3.32,5.94,4.56,9.26,2.77l521.59-281.47c3.32-1.79,4.56-5.94,2.77-9.26Z"/>
</svg>